# File created by Blade
# Date/Time:  Tue Sep 30 19:10:05 2014
#---------------------------------------------------------
:version 1.10
:name HOM
:units
  mass 1.0
  length 1.000000
  angle deg
:documentation
     Acclaim Skeleton File
:root
   axis xyz
   order TX TY TZ RX RY RZ
   position 0.000000 0.000000 0.000000
   orientation 0 0 0
:bonedata
   begin
      id 1
      name Spine_dum
      direction 0.000000 1.000000 0.000000
      length 7.508948
      axis 0.0 0.0 0.0 xyz
   end
   begin
      id 2
      name LeftUpLeg_dum
      direction 1.000000 0.000000 0.000000
      length 3.000560
      axis 0.0 0.0 0.0 xyz
   end
   begin
      id 3
      name RightUpLeg_dum
      direction -1.000000 0.000000 0.000000
      length 3.000560
      axis 0.0 0.0 0.0 xyz
   end
   begin
      id 4
      name Spine
      direction 0.000000 1.000000 0.000000
      length 0.000000
      axis 0.0 0.0 0.0 xyz
      dof rx ry rz
   end
   begin
      id 5
      name Spine_dum1
      direction 0.000000 1.000000 0.000000
      length 13.861154
      axis 0.0 0.0 0.0 xyz
   end
   begin
      id 6
      name Spine_dum2
      direction 0.000000 1.000000 0.000000
      length 8.204781
      axis 0.0 0.0 0.0 xyz
   end
   begin
      id 7
      name Spine_dum3
      direction 0.000000 1.000000 0.000000
      length 8.204781
      axis 0.0 0.0 0.0 xyz
   end
   begin
      id 8
      name Head
      direction 0.000000 1.000000 0.000000
      length 4.527550
      axis 0.0 0.0 0.0 xyz
      dof rx ry rz
   end
   begin
      id 9
      name LeftShoulder
      direction 1.000000 0.000000 0.000000
      length 6.635956
      axis 0.0 0.0 -90.0 xyz
      dof rx ry rz
   end
   begin
      id 10
      name LeftArm
      direction 1.000000 0.000000 0.000000
      length 10.274218
      axis 0.0 0.0 -90.0 xyz
      dof rx ry rz
   end
   begin
      id 11
      name LeftForeArm
      direction 1.000000 0.000000 0.000000
      length 8.522147
      axis 0.0 0.0 -90.0 xyz
      dof ry rz rx
   end
   begin
      id 12
      name LeftHand
      direction 0.000000 0.000000 0.000000
      length 0.000000
      axis 0.0 0.0 -90.0 xyz
      dof rx ry rz
   end
   begin
      id 13
      name LeftHand_dum1
      direction 0.000000 0.000000 0.000000
      length 0.000000
      axis 0.0 0.0 -90.0 xyz
   end
   begin
      id 14
      name LeftHand_dum2
      direction 1.000000 0.000000 0.000000
      length 3.937000
      axis 0.0 0.0 -90.0 xyz
   end
   begin
      id 15
      name LeftHandThumb1
      direction 0.000000 0.000000 1.000000
      length 3.937000
      axis 0.0 0.0 -90.0 xyz
      dof rx rz ry
   end
   begin
      id 16
      name RightShoulder
      direction -1.000000 0.000000 0.000000
      length 6.635956
      axis 0.0 0.0 90.0 xyz
      dof rx ry rz
   end
   begin
      id 17
      name RightArm
      direction -1.000000 0.000000 0.000000
      length 10.274218
      axis 0.0 0.0 90.0 xyz
      dof rx ry rz
   end
   begin
      id 18
      name RightForeArm
      direction -1.000000 0.000000 0.000000
      length 8.522147
      axis 0.0 0.0 90.0 xyz
      dof ry rz rx
   end
   begin
      id 19
      name RightHand
      direction 0.000000 0.000000 0.000000
      length 0.000000
      axis 0.0 0.0 90.0 xyz
      dof rx ry rz
   end
   begin
      id 20
      name RightHand_dum1
      direction 0.000000 0.000000 0.000000
      length 0.000000
      axis 0.0 0.0 90.0 xyz
   end
   begin
      id 21
      name RightHand_dum2
      direction -1.000000 0.000000 0.000000
      length 3.937000
      axis 0.0 0.0 90.0 xyz
   end
   begin
      id 22
      name RightHandThumb1
      direction 0.000000 0.000000 1.000000
      length 3.937000
      axis 0.0 0.0 90.0 xyz
      dof rx rz ry
   end
   begin
      id 23
      name LeftUpLeg
      direction 0.000000 -1.000000 0.000000
      length 16.490845
      axis 0.0 0.0 0.0 xyz
      dof rx ry rz
   end
   begin
      id 24
      name LeftLeg
      direction 0.000000 -1.000000 0.000000
      length 14.556576
      axis 0.0 0.0 0.0 xyz
      dof rx ry rz
   end
   begin
      id 25
      name LeftFoot
      direction 0.000000 -0.258819 0.965926
      length 4.831116
      axis 15.0 0.0 0.0 xyz
      dof rx ry rz
   end
   begin
      id 26
      name LeftToeBase
      direction 0.000000 0.000000 1.000000
      length 2.952750
      axis 0.0 0.0 0.0 xyz
      dof rx ry rz
   end
   begin
      id 27
      name RightUpLeg
      direction 0.000000 -1.000000 0.000000
      length 16.490845
      axis 0.0 0.0 0.0 xyz
      dof rx ry rz
   end
   begin
      id 28
      name RightLeg
      direction 0.000000 -1.000000 0.000000
      length 14.556576
      axis 0.0 0.0 0.0 xyz
      dof rx ry rz
   end
   begin
      id 29
      name RightFoot
      direction 0.000000 -0.258819 0.965926
      length 4.831116
      axis 15.0 0.0 0.0 xyz
      dof rx ry rz
   end
   begin
      id 30
      name RightToeBase
      direction 0.000000 0.000000 1.000000
      length 2.952750
      axis 0.0 0.0 0.0 xyz
      dof rx ry rz
   end
:hierarchy
   begin
      root Spine_dum LeftUpLeg_dum RightUpLeg_dum
      Spine_dum Spine
      LeftUpLeg_dum LeftUpLeg
      RightUpLeg_dum RightUpLeg
      Spine Spine_dum1 Spine_dum2 Spine_dum3
      Spine_dum1 Head
      Spine_dum2 LeftShoulder
      Spine_dum3 RightShoulder
      LeftShoulder LeftArm
      LeftArm LeftForeArm
      LeftForeArm LeftHand
      LeftHand LeftHand_dum1 LeftHand_dum2
      LeftHand_dum1 LeftHandThumb1
      RightShoulder RightArm
      RightArm RightForeArm
      RightForeArm RightHand
      RightHand RightHand_dum1 RightHand_dum2
      RightHand_dum1 RightHandThumb1
      LeftUpLeg LeftLeg
      LeftLeg LeftFoot
      LeftFoot LeftToeBase
      RightUpLeg RightLeg
      RightLeg RightFoot
      RightFoot RightToeBase
   end

# File created by Blade
# Date/Time:  Wed Sep 24 20:15:16 2014
# Frame Rate: 120.000 fps
#------------------------------------------------------
:FULLY-SPECIFIED
:DEGREES
294
root -6.244474 32.759026 -5.050389 17.585516 5.480873 -1.031000
Spine -20.815217 6.469765 0.310207
Head -9.617861 -8.676085 5.483976
LeftShoulder -6.781707 17.173438 9.791586
LeftArm 26.434390 41.672566 -69.174000
LeftForeArm 1.314293 -0.000000 23.329650
LeftHand -22.144407 0.000000 -7.878402
LeftHandThumb1 -26.253704 0.000000 33.147579
RightShoulder -15.214315 11.436373 -11.499632
RightArm -18.968628 -4.334598 87.461554
RightForeArm 36.695066 -0.000000 91.267299
RightHand 3.822122 -0.000000 9.646814
RightHandThumb1 -24.326973 -0.000000 -32.862282
LeftUpLeg -14.663286 5.029627 4.079719
LeftLeg -0.052418 -0.000000 0.000000
LeftFoot -10.715349 6.372470 -18.385760
LeftToeBase 9.411174 -0.000000 -0.000000
RightUpLeg -14.607058 -7.442019 -0.933652
RightLeg 3.143010 -0.000000 -0.000000
RightFoot -9.113330 -4.737902 -13.488007
RightToeBase 0.224027 -0.000000 -0.000000
295
root -6.244368 32.758852 -5.053485 17.586046 5.487291 -1.024642
Spine -20.821909 6.461443 0.299447
Head -9.620141 -8.638213 5.463580
LeftShoulder -6.784611 17.186968 9.800026
LeftArm 26.461745 41.675089 -69.153344
LeftForeArm 1.307530 0.000000 23.341919
LeftHand -22.162284 -0.000000 -7.834780
LeftHandThumb1 -26.253704 0.000000 33.147579
RightShoulder -15.219365 11.455142 -11.465191
RightArm -19.028567 -4.218211 87.386762
RightForeArm 36.721810 -0.000000 90.764273
RightHand 3.790427 -0.000000 9.463612
RightHandThumb1 -24.326973 -0.000000 -32.862282
LeftUpLeg -14.672224 5.016881 4.072749
LeftLeg -0.047708 -0.000000 0.000000
LeftFoot -10.744408 6.401200 -18.219780
LeftToeBase 9.591068 -0.000000 -0.000000
RightUpLeg -14.578042 -7.353839 -0.965765
RightLeg 3.081505 -0.000000 -0.000000
RightFoot -9.070904 -4.801518 -13.457251
RightToeBase 0.254774 -0.000000 -0.000000
296
root -6.243728 32.758792 -5.055326 17.585151 5.473874 -1.022080
Spine -20.828961 6.454536 0.296407
Head -9.618678 -8.598838 5.425711
LeftShoulder -6.805698 17.195625 9.801032
LeftArm 26.462392 41.677740 -69.145604
LeftForeArm 1.359400 -0.000000 23.357907
LeftHand -22.177096 -0.000000 -7.889345
LeftHandThumb1 -26.253704 0.000000 33.147579
RightShoulder -15.218388 11.435771 -11.419444
RightArm -19.035209 -4.120590 87.312755
RightForeArm 36.903871 -0.000000 90.266127
RightHand 3.681046 -0.000000 9.297410
RightHandThumb1 -24.326973 -0.000000 -32.862282
LeftUpLeg -14.668416 5.053304 4.060572
LeftLeg -0.057906 -0.000000 0.000000
LeftFoot -10.700127 6.350749 -18.391274
LeftToeBase 9.404705 -0.000000 -0.000000
RightUpLeg -14.622654 -7.407544 -0.953518
RightLeg 3.161222 -0.000000 -0.000000
RightFoot -9.131911 -4.763181 -13.456910
RightToeBase 0.317545 -0.000000 -0.000000
297
root -6.243889 32.759149 -5.058319 17.584795 5.468259 -1.024886
Spine -20.833664 6.456003 0.299102
Head -9.615614 -8.562245 5.384767
LeftShoulder -6.812152 17.200726 9.808673
LeftArm 26.467909 41.681231 -69.143848
LeftForeArm 1.359460 -0.000000 23.362685
LeftHand -22.151359 -0.000000 -7.857880
LeftHandThumb1 -26.253704 0.000000 33.147579
RightShoulder -15.232345 11.433430 -11.375002
RightArm -19.048426 -4.057824 87.238716
RightForeArm 37.084693 0.000000 89.776619
RightHand 3.748487 -0.000000 9.184057
RightHandThumb1 -24.326973 -0.000000 -32.862282
LeftUpLeg -14.678691 5.076661 4.057539
LeftLeg -0.044928 -0.000000 0.000000
LeftFoot -10.692964 6.339357 -18.365013
LeftToeBase 9.380089 -0.000000 -0.000000
RightUpLeg -14.635201 -7.395634 -0.957512
RightLeg 3.177496 -0.000000 -0.000000
RightFoot -9.126223 -4.739923 -13.430699
RightToeBase 0.288164 -0.000000 -0.000000
298
root -6.241275 32.758520 -5.058687 17.553960 5.490797 -1.010188
Spine -20.802272 6.424605 0.313215
Head -9.609138 -8.532796 5.312154
LeftShoulder -6.804352 17.213757 9.801391
LeftArm 26.461885 41.656980 -69.149737
LeftForeArm 1.389092 -0.000000 23.377019
LeftHand -22.178069 -0.000000 -7.868384
LeftHandThumb1 -26.253704 0.000000 33.147579
RightShoulder -15.224015 11.456459 -11.334919
RightArm -19.095212 -3.954488 87.158246
RightForeArm 37.236947 0.000000 89.356957
RightHand 3.748084 0.000000 9.132176
RightHandThumb1 -24.326973 -0.000000 -32.862282
LeftUpLeg -14.648299 5.058818 4.044717
LeftLeg -0.050833 -0.000000 0.000000
LeftFoot -10.692347 6.344619 -18.320225
LeftToeBase 9.409785 -0.000000 -0.000000
RightUpLeg -14.559644 -7.340531 -0.996115
RightLeg 3.098016 -0.000000 -0.000000
RightFoot -9.085429 -4.799812 -13.428210
RightToeBase 0.280424 -0.000000 -0.000000
299
root -6.240605 32.758045 -5.060135 17.542896 5.482623 -1.017954
Spine -20.795415 6.426070 0.338179
Head -9.601967 -8.472467 5.241792
LeftShoulder -6.804136 17.226186 9.799671
LeftArm 26.461056 41.661640 -69.143511
LeftForeArm 1.358933 0.000000 23.384944
LeftHand -22.159956 0.000000 -7.838999
LeftHandThumb1 -26.253704 0.000000 33.147579
RightShoulder -15.233224 11.490181 -11.313260
RightArm -19.145061 -3.889505 87.087689
RightForeArm 37.378903 -0.000000 88.947806
RightHand 3.794627 -0.000000 9.146534
RightHandThumb1 -24.326973 -0.000000 -32.862282
LeftUpLeg -14.636617 5.074729 4.046765
LeftLeg -0.056363 -0.000000 0.000000
LeftFoot -10.691971 6.335404 -18.320712
LeftToeBase 9.404927 -0.000000 -0.000000
RightUpLeg -14.552046 -7.319838 -0.994683
RightLeg 3.095797 -0.000000 -0.000000
RightFoot -9.079869 -4.814953 -13.399877
RightToeBase 0.282101 -0.000000 -0.000000
300
root -6.238665 32.757799 -5.062801 17.543819 5.476544 -1.000503
Spine -20.799212 6.408168 0.334583
Head -9.579436 -8.407691 5.169374
LeftShoulder -6.813576 17.223381 9.808588
LeftArm 26.443280 41.669268 -69.156301
LeftForeArm 1.345460 -0.000000 23.380663
LeftHand -22.161156 0.000000 -7.841601
LeftHandThumb1 -26.253704 0.000000 33.147579
RightShoulder -15.223153 11.505375 -11.269934
RightArm -19.173556 -3.790516 87.018655
RightForeArm 37.425468 -0.000000 88.556786
RightHand 3.879121 -0.000000 9.282937
RightHandThumb1 -24.326973 -0.000000 -32.862282
LeftUpLeg -14.638868 5.067273 4.022980
LeftLeg -0.057213 -0.000000 0.000000
LeftFoot -10.723999 6.364881 -18.199950
LeftToeBase 9.578689 -0.000000 -0.000000
RightUpLeg -14.563836 -7.312319 -1.015923
RightLeg 3.114713 -0.000000 -0.000000
RightFoot -9.097354 -4.838350 -13.427830
RightToeBase 0.294462 -0.000000 -0.000000
301
root -6.238626 32.757911 -5.064535 17.527916 5.482181 -1.019366
Spine -20.788059 6.394984 0.390967
Head -9.549324 -8.318658 5.064062
LeftShoulder -6.811459 17.241122 9.795858
LeftArm 26.450321 41.674170 -69.142509
LeftForeArm 1.311229 -0.000000 23.379956
LeftHand -22.155749 -0.000000 -7.843784
LeftHandThumb1 -26.253704 0.000000 33.147579
RightShoulder -15.231498 11.489860 -11.244061
RightArm -19.145904 -3.734137 86.953817
RightForeArm 37.388968 -0.000000 88.193001
RightHand 3.985538 -0.000000 9.313599
RightHandThumb1 -24.326973 -0.000000 -32.862282
LeftUpLeg -14.624942 5.067995 4.043944
LeftLeg -0.066030 -0.000000 0.000000
LeftFoot -10.713929 6.363860 -18.176357
LeftToeBase 9.518901 -0.000000 -0.000000
RightUpLeg -14.549641 -7.307267 -0.997405
RightLeg 3.108382 -0.000000 -0.000000
RightFoot -9.078350 -4.851379 -13.448901
RightToeBase 0.358992 -0.000000 -0.000000
302
root -6.238403 32.757845 -5.067409 17.527853 5.464627 -1.020410
Spine -20.793150 6.387920 0.405159
Head -9.516039 -8.223937 4.983887
LeftShoulder -6.816512 17.253185 9.808316
LeftArm 26.454804 41.681113 -69.138980
LeftForeArm 1.292620 0.000000 23.362936
LeftHand -22.176496 -0.000000 -7.851113
LeftHandThumb1 -26.253704 0.000000 33.147579
RightShoulder -15.245129 11.506738 -11.225704
RightArm -19.150986 -3.709209 86.911527
RightForeArm 37.361229 -0.000000 87.848202
RightHand 3.868593 -0.000000 9.437163
RightHandThumb1 -24.326973 -0.000000 -32.862282
LeftUpLeg -14.627744 5.073476 4.041650
LeftLeg -0.061666 -0.000000 0.000000
LeftFoot -10.734897 6.374426 -18.193739
LeftToeBase 9.597567 -0.000000 -0.000000
RightUpLeg -14.558944 -7.293898 -1.001216
RightLeg 3.113437 -0.000000 -0.000000
RightFoot -9.080494 -4.837534 -13.418595
RightToeBase 0.327299 -0.000000 -0.000000
